<svg xmlns="http://www.w3.org/2000/svg" width="837.5050048828125" height="645.4210205078125" viewBox="-246.01951599121094 -236.5448455810547 837.5050048828125 645.4210205078125"><title>Neo4j Graph Visualization</title><desc>Created using Neo4j (http://www.neo4j.com/)</desc><g class="layer relationships"><g class="relationship" transform="translate(234.60944515060143 -134.62186448726177) rotate(470.77085277873704)"><path class="outline" fill="#A5ABB6" stroke="none" d="M 24.018736134675446,6.953439040707552 L 24.277555179777966,5.987513214418485 A 375.7515077320956 375.7515077320956 0 0 0 96.53217950539451,17.958544838234218 L 96.46565409807863,18.956329569617424 A 376.7515077320956 376.7515077320956 0 0 1 24.018736134675446,6.953439040707552 Z M 141.1733690828836,19.278454395931817 L 141.12122817017882,18.279814658477733 A 375.7515077320956 375.7515077320956 0 0 0 213.540847534711,7.351179534610711 L 212.80622656286263,4.442514543980032 L 220.45016934149064,6.12184143206965 L 214.52034216384212,11.229399522118284 L 213.78572119199376,8.320734531487604 A 376.7515077320956 376.7515077320956 0 0 1 141.1733690828836,19.278454395931817"/><text text-anchor="middle" pointer-events="none" font-size="8px" fill="#000000" x="118.81833155313167" y="22.281169404384457" transform="rotate(180 118.81833155313167 19.281169404384457)" font-family="sans-serif">DEPENDS</text></g><g class="relationship" transform="translate(179.4458122840495 170.5482297746259) rotate(247.51834326866424)"><path class="outline" fill="#A5ABB6" stroke="none" d="M 24.018736134675446,6.953439040707552 L 24.277555179777966,5.987513214418485 A 56.57450809577835 56.57450809577835 0 0 0 25.45788336769931,6.290195847496356 L 25.2199275740443,7.261471833128667 A 57.57450809577835 57.57450809577835 0 0 1 24.018736134675446,6.953439040707552 Z M 50.344188584026206,7.7704656669287 L 50.145766163764286,6.790349070223286 A 56.57450809577835 56.57450809577835 0 0 0 51.33738496431936,6.535719846189191 L 50.67892923717321,3.6088723859705287 L 58.276438326020596,5.4871310595512774 L 52.215325933847566,10.438183126480741 L 51.55687020670141,7.511335666262078 A 57.57450809577835 57.57450809577835 0 0 1 50.344188584026206,7.7704656669287"/><text text-anchor="middle" pointer-events="none" font-size="8px" fill="#000000" x="37.76407684599578" y="11.403533907335692" transform="rotate(180 37.76407684599578 8.403533907335692)" font-family="sans-serif">DE…</text></g><g class="relationship" transform="translate(-143.62805773679537 47.827229641762834) rotate(369.0332614235109)"><path class="outline" fill="#A5ABB6" stroke="none" d="M 24.018736134675446,-6.953439040707552 L 24.277555179777966,-5.987513214418485 A 473.7215475111283 473.7215475111283 0 0 1 121.74023793728173,-21.46134291500374 L 121.68715722785248,-22.459933140414762 A 474.7215475111283 474.7215475111283 0 0 0 24.018736134675446,-6.953439040707552 Z M 166.39270091818025,-22.72822919264695 L 166.35160948833183,-21.72907380213303 A 473.7215475111283 473.7215475111283 0 0 1 263.99299463385535,-7.426142537666019 L 263.25137364470237,-4.519254457872135 L 270.8993369848999,-6.1801749096080805 L 264.98182261939263,-11.30199331072453 L 264.24020163023965,-8.395105230930646 A 474.7215475111283 474.7215475111283 0 0 0 166.39270091818025,-22.72822919264695"/><text text-anchor="middle" pointer-events="none" font-size="8px" fill="#000000" x="144.03976966014204" y="-19.620643760943324" font-family="sans-serif">DEPENDS</text></g><g class="relationship" transform="translate(489.0200762759113 129.53335311523813) rotate(185.91850918256597)"><path class="outline" fill="#A5ABB6" stroke="none" d="M 24.018736134675446,-6.953439040707552 L 24.277555179777966,-5.987513214418485 A 566.6026660365815 566.6026660365815 0 0 1 145.6804677054598,-24.731371279950167 L 145.63591329376413,-25.730378239084303 A 567.6026660365815 567.6026660365815 0 0 0 24.018736134675446,-6.953439040707552 Z M 190.33892242544323,-25.961926939022646 L 190.30471926285927,-24.962512038358568 A 566.6026660365815 566.6026660365815 0 0 1 311.89528797825704,-7.477290153427641 L 311.14889100412114,-4.571624729294857 L 318.7995734635895,-6.219974784465974 L 312.8904839437716,-11.35151071893802 L 312.1440869696357,-8.445845294805236 A 567.6026660365815 567.6026660365815 0 0 0 190.33892242544323,-25.961926939022646"/><text text-anchor="middle" pointer-events="none" font-size="8px" fill="#000000" x="167.9877272389665" y="-22.786423519163804" transform="rotate(180 167.9877272389665 -25.786423519163804)" font-family="sans-serif">DEPENDS</text></g><g class="relationship" transform="translate(322.0281176762985 287.4238109639685) rotate(227.97036500777347)"><path class="outline" fill="#A5ABB6" stroke="none" d="M 24.018736134675446,-6.953439040707552 L 24.277555179777966,-5.987513214418485 A 405.8615085056114 405.8615085056114 0 0 1 104.27320559557413,-19.04318061442001 L 104.21148740566316,-20.04127422978587 A 406.8615085056114 406.8615085056114 0 0 0 24.018736134675446,-6.953439040707552 Z M 148.91868530143321,-20.344704445348953 L 148.87052040591794,-19.345865047427537 A 405.8615085056114 405.8615085056114 0 0 1 229.03601220819507,-7.377220144817792 L 228.29895954222332,-4.46917039153228 L 235.94430374352322,-6.142105549764617 L 230.01874909615742,-11.25461981586514 L 229.28169643018566,-8.34657006257963 A 406.8615085056114 406.8615085056114 0 0 0 148.91868530143321,-20.344704445348953"/><text text-anchor="middle" pointer-events="none" font-size="8px" fill="#000000" x="126.56430882579032" y="-17.307549739127694" transform="rotate(180 126.56430882579032 -20.307549739127694)" font-family="sans-serif">DEPENDS</text></g><g class="relationship" transform="translate(2.9826644923545453 75.44163061230795) rotate(367.364693219677)"><path class="outline" fill="#A5ABB6" stroke="none" d="M 24.018736134675446,6.953439040707552 L 24.277555179777966,5.987513214418485 A 183.0823169332538 183.0823169332538 0 0 0 47.28786373423797,10.596047810422846 L 47.154727545567994,11.587145563051934 A 184.0823169332538 184.0823169332538 0 0 1 24.018736134675446,6.953439040707552 Z M 91.83858696074878,12.1168922246585 L 91.72898468241335,11.12291670152743 A 183.0823169332538 183.0823169332538 0 0 0 114.84208290784989,7.06119522962109 L 114.13454318461176,4.145824320107156 L 121.76253831725542,5.896164360317773 L 115.78546920550072,10.948356442306336 L 115.07792948226259,8.032985532792402 A 184.0823169332538 184.0823169332538 0 0 1 91.83858696074878,12.1168922246585"/><text text-anchor="middle" pointer-events="none" font-size="8px" fill="#000000" x="69.48645004262599" y="15.7129918711411" font-family="sans-serif">DEPENDS</text></g><g class="relationship" transform="translate(94.46108502835239 306.67680608057094) rotate(284.09858038806914)"><path class="outline" fill="#A5ABB6" stroke="none" d="M 24.018736134675446,6.953439040707552 L 24.277555179777966,5.987513214418485 A 325.9746948885695 325.9746948885695 0 0 0 83.75201710973798,16.142890684775864 L 83.67564922683468,17.13997039395707 A 326.9746948885695 326.9746948885695 0 0 1 24.018736134675446,6.953439040707552 Z M 128.38351033138457,17.498570969965726 L 128.32314634542018,16.500394538066814 A 325.9746948885695 325.9746948885695 0 0 0 187.95285761736338,7.300348502942959 L 187.22298338703962,4.3904887798790995 L 194.86417600956634,6.082285252698135 L 188.92602325779507,11.180161467028105 L 188.1961490274713,8.270301743964245 A 326.9746948885695 326.9746948885695 0 0 1 128.38351033138457,17.498570969965726"/><text text-anchor="middle" pointer-events="none" font-size="8px" fill="#000000" x="106.02745374482862" y="20.584330059157253" font-family="sans-serif">DEPENDS</text></g><g class="relationship" transform="translate(-105.46604164227827 -85.19195084268125) rotate(395.30131071342953)"><path class="outline" fill="#A5ABB6" stroke="none" d="M 24.018736134675446,6.953439040707552 L 24.277555179777966,5.987513214418485 A 503.305338061118 503.305338061118 0 0 0 129.3620728479079,22.506939055706766 L 129.31204260300558,23.505686758880586 A 504.305338061118 504.305338061118 0 0 1 24.018736134675446,6.953439040707552 Z M 174.01678166682578,23.76107890811926 L 173.97816573709966,22.76182478129698 A 503.305338061118 503.305338061118 0 0 0 279.2445647252001,7.444105377047912 L 278.5012664142752,4.537645740139779 L 286.1501869298066,6.194152591041113 L 280.2356291397667,11.319384892925424 L 279.4923308288418,8.41292525601729 A 504.305338061118 504.305338061118 0 0 1 174.01678166682578,23.76107890811926"/><text text-anchor="middle" pointer-events="none" font-size="8px" fill="#000000" x="151.66443714128917" y="26.629005630027905" font-family="sans-serif">DEPENDS</text></g><g class="relationship" transform="translate(147.83503742479655 94.16390986590515) rotate(415.73163680387313)"><path class="outline" fill="#A5ABB6" stroke="none" d="M 6.953439040707552 24.018736134675446 L 17.306200844808384 62.65576918623819 A 17.916697508022974 17.916697508022974 0 1 1 -17.306200844808384 62.65576918623819 L -8.765172356425198 30.780216918698923 L -4.901469051268926 31.815493099109005 L -6.4704761275630185 24.148145657226706 L -11.662949835292403 30.00375978339136 L -7.79924653013613 31.039035963801442 L -16.340275018519314 62.91458823134071 A 16.916697508022974 16.916697508022974 0 1 0 16.340275018519314 62.91458823134071 L 5.987513214418485 24.277555179777966 Z"/><text text-anchor="middle" pointer-events="none" font-size="8px" fill="#000000" x="0" y="94.20964923467838" font-family="sans-serif">DEPENDS</text></g><g class="relationship" transform="translate(-143.62805773679537 47.827229641762834) rotate(407.3922345149492)"><path class="outline" fill="#A5ABB6" stroke="none" d="M 24.018736134675446,-6.953439040707552 L 24.277555179777966,-5.987513214418485 A 583.4300686397339 583.4300686397339 0 0 1 150.02072115474851,-25.32034510420135 L 149.9774260819845,-26.31940743292489 A 584.4300686397339 584.4300686397339 0 0 0 24.018736134675446,-6.953439040707552 Z M 194.67998580854692,-26.545345772605174 L 194.64679173038374,-25.545896847859694 A 583.4300686397339 583.4300686397339 0 0 1 320.57895482390506,-7.485097395057467 L 319.83182884837834,-4.5796193316928075 L 327.4829246343437,-6.226049796055911 L 321.575122791274,-11.359068146210348 L 320.82799681574727,-8.453590082845688 A 584.4300686397339 584.4300686397339 0 0 0 194.67998580854692,-26.545345772605174"/><text text-anchor="middle" pointer-events="none" font-size="8px" fill="#000000" x="172.32907199568157" y="-23.359952459959686" font-family="sans-serif">DEPENDS</text></g><g class="relationship" transform="translate(179.4458122840495 170.5482297746259) rotate(481.97642925325124)"><path class="outline" fill="#A5ABB6" stroke="none" d="M 24.018736134675446,6.953439040707552 L 24.277555179777966,5.987513214418485 A 211.4164648335401 211.4164648335401 0 0 0 54.47607181799211,11.764619821960792 L 54.36009177392005,12.75787136581917 A 212.4164648335401 212.4164648335401 0 0 1 24.018736134675446,6.953439040707552 Z M 99.05577779619414,13.24206537486333 L 98.96134248448246,12.246534374893002 A 211.4164648335401 211.4164648335401 0 0 0 129.27792552524787,7.1249954815742305 L 128.56442722456595,4.211077127377595 L 136.19598473515367,5.945819172349218 L 130.22925659282376,11.010219953836412 L 129.51575829214184,8.096301599639776 A 212.4164648335401 212.4164648335401 0 0 1 99.05577779619414,13.24206537486333"/><text text-anchor="middle" pointer-events="none" font-size="8px" fill="#000000" x="76.70057960814788" y="16.678920756434593" transform="rotate(180 76.70057960814788 13.678920756434593)" font-family="sans-serif">DEPENDS</text></g><g class="relationship" transform="translate(147.83503742479655 94.16390986590515) rotate(464.09858038806914)"><path class="outline" fill="#A5ABB6" stroke="none" d="M 24.018736134675446,6.953439040707552 L 24.277555179777966,5.987513214418485 A 325.9746948885695 325.9746948885695 0 0 0 83.75201710973798,16.142890684775864 L 83.67564922683468,17.13997039395707 A 326.9746948885695 326.9746948885695 0 0 1 24.018736134675446,6.953439040707552 Z M 128.38351033138457,17.498570969965726 L 128.32314634542018,16.500394538066814 A 325.9746948885695 325.9746948885695 0 0 0 187.95285761736338,7.300348502942959 L 187.22298338703962,4.3904887798790995 L 194.86417600956634,6.082285252698135 L 188.92602325779507,11.180161467028105 L 188.1961490274713,8.270301743964245 A 326.9746948885695 326.9746948885695 0 0 1 128.38351033138457,17.498570969965726"/><text text-anchor="middle" pointer-events="none" font-size="8px" fill="#000000" x="106.02745374482862" y="20.584330059157253" transform="rotate(180 106.02745374482862 17.584330059157253)" font-family="sans-serif">DEPENDS</text></g><g class="relationship" transform="translate(322.0281176762985 287.4238109639685) rotate(535.1640857354364)"><path class="outline" fill="#A5ABB6" stroke="none" d="M 24.018736134675446,-6.953439040707552 L 24.277555179777966,-5.987513214418485 A 344.0199281373059 344.0199281373059 0 0 1 88.38230071062941,-16.804918608957166 L 88.30982187517098,-17.80228855958262 A 345.0199281373059 345.0199281373059 0 0 0 24.018736134675446,-6.953439040707552 Z M 133.01777267362354,-18.146757250558778 L 132.96067073083583,-17.1483888976299 A 344.0199281373059 344.0199281373059 0 0 1 197.22448895032971,-7.320045858396003 L 196.4927753115751,-4.410648128476547 L 204.1350359266009,-6.097613656288476 L 198.20010713533588,-11.199242831621943 L 197.46839349658126,-8.289845101702488 A 345.0199281373059 345.0199281373059 0 0 0 133.01777267362354,-18.146757250558778"/><text text-anchor="middle" pointer-events="none" font-size="8px" fill="#000000" x="110.6620639931108" y="-15.199482259881279" transform="rotate(180 110.6620639931108 -18.19948225988128)" font-family="sans-serif">DEPENDS</text></g><g class="relationship" transform="translate(489.0200762759113 129.53335311523813) rotate(515.8215553578373)"><path class="outline" fill="#A5ABB6" stroke="none" d="M 24.018736134675446,-6.953439040707552 L 24.277555179777966,-5.987513214418485 A 739.9431371168455 739.9431371168455 0 0 1 190.4192237489642,-30.765423123454184 L 190.38493772570516,-31.764835184922845 A 740.9431371168455 740.9431371168455 0 0 0 24.018736134675446,-6.953439040707552 Z M 235.08372603165463,-31.949195099882672 L 235.0576851741224,-30.94953422051458 A 739.9431371168455 739.9431371168455 0 0 1 401.39809045462766,-7.542944859164647 L 400.6455630652151,-4.63886109174611 L 408.2997071435064,-6.271061578438326 L 402.40146030717784,-11.41505654905603 L 401.64893291776525,-8.510972781637493 A 740.9431371168455 740.9431371168455 0 0 0 235.08372603165463,-31.949195099882672"/><text text-anchor="middle" pointer-events="none" font-size="8px" fill="#000000" x="212.73500354796025" y="-28.69416627701662" transform="rotate(180 212.73500354796025 -31.69416627701662)" font-family="sans-serif">DEPENDS</text></g><g class="relationship" transform="translate(94.46108502835239 306.67680608057094) rotate(381.2781601251928)"><path class="outline" fill="#A5ABB6" stroke="none" d="M 6.953439040707552 24.018736134675446 L 17.306200844808384 62.65576918623819 A 17.916697508022974 17.916697508022974 0 1 1 -17.306200844808384 62.65576918623819 L -8.765172356425198 30.780216918698923 L -4.901469051268926 31.815493099109005 L -6.4704761275630185 24.148145657226706 L -11.662949835292403 30.00375978339136 L -7.79924653013613 31.039035963801442 L -16.340275018519314 62.91458823134071 A 16.916697508022974 16.916697508022974 0 1 0 16.340275018519314 62.91458823134071 L 5.987513214418485 24.277555179777966 Z"/><text text-anchor="middle" pointer-events="none" font-size="8px" fill="#000000" x="0" y="94.20964923467838" font-family="sans-serif">DEPENDS</text></g><g class="relationship" transform="translate(147.83503742479655 94.16390986590515) rotate(427.51834326866424)"><path class="outline" fill="#A5ABB6" stroke="none" d="M 24.018736134675446,6.953439040707552 L 24.277555179777966,5.987513214418485 A 56.57450809577835 56.57450809577835 0 0 0 25.45788336769931,6.290195847496356 L 25.2199275740443,7.261471833128667 A 57.57450809577835 57.57450809577835 0 0 1 24.018736134675446,6.953439040707552 Z M 50.344188584026206,7.7704656669287 L 50.145766163764286,6.790349070223286 A 56.57450809577835 56.57450809577835 0 0 0 51.33738496431936,6.535719846189191 L 50.67892923717321,3.6088723859705287 L 58.276438326020596,5.4871310595512774 L 52.215325933847566,10.438183126480741 L 51.55687020670141,7.511335666262078 A 57.57450809577835 57.57450809577835 0 0 1 50.344188584026206,7.7704656669287"/><text text-anchor="middle" pointer-events="none" font-size="8px" fill="#000000" x="37.76407684599578" y="11.403533907335692" font-family="sans-serif">DE…</text></g><g class="relationship" transform="translate(94.46108502835239 306.67680608057094) rotate(301.97642925325124)"><path class="outline" fill="#A5ABB6" stroke="none" d="M 24.018736134675446,6.953439040707552 L 24.277555179777966,5.987513214418485 A 211.4164648335401 211.4164648335401 0 0 0 54.47607181799211,11.764619821960792 L 54.36009177392005,12.75787136581917 A 212.4164648335401 212.4164648335401 0 0 1 24.018736134675446,6.953439040707552 Z M 99.05577779619414,13.24206537486333 L 98.96134248448246,12.246534374893002 A 211.4164648335401 211.4164648335401 0 0 0 129.27792552524787,7.1249954815742305 L 128.56442722456595,4.211077127377595 L 136.19598473515367,5.945819172349218 L 130.22925659282376,11.010219953836412 L 129.51575829214184,8.096301599639776 A 212.4164648335401 212.4164648335401 0 0 1 99.05577779619414,13.24206537486333"/><text text-anchor="middle" pointer-events="none" font-size="8px" fill="#000000" x="76.70057960814788" y="16.678920756434593" font-family="sans-serif">DEPENDS</text></g><g class="relationship" transform="translate(-143.62805773679537 47.827229641762834) rotate(380.79949622698945)"><path class="outline" fill="#A5ABB6" stroke="none" d="M 24.018736134675446,-6.953439040707552 L 24.277555179777966,-5.987513214418485 A 571.6101682337235 571.6101682337235 0 0 1 146.97196044579303,-24.906730802722336 L 146.9277883962909,-25.905754741395867 A 572.6101682337235 572.6101682337235 0 0 0 24.018736134675446,-6.953439040707552 Z M 191.63066310933777,-26.135605109033122 L 191.59676655790858,-25.13617976224566 A 571.6101682337235 571.6101682337235 0 0 1 314.4792346322311,-7.479653555263691 L 313.73261697506683,-4.574044828333901 L 321.38342460459467,-6.22181380970206 L 315.4747248417835,-11.35379852450341 L 314.7281071846192,-8.44818979757362 A 572.6101682337235 572.6101682337235 0 0 0 191.63066310933777,-26.135605109033122"/><text text-anchor="middle" pointer-events="none" font-size="8px" fill="#000000" x="169.27955268987134" y="-22.957094965800593" font-family="sans-serif">DEPENDS</text></g><g class="relationship" transform="translate(322.0281176762985 287.4238109639685) rotate(219.34168124270218)"><path class="outline" fill="#A5ABB6" stroke="none" d="M 24.018736134675446,-6.953439040707552 L 24.277555179777966,-5.987513214418485 A 258.17923335163977 258.17923335163977 0 0 1 66.3950999232034,-13.600117463740787 L 66.29941384660754,-14.595529024225016 A 259.17923335163977 259.17923335163977 0 0 0 24.018736134675446,-6.953439040707552 Z M 111.00392948338967,-15.019298786682498 L 110.9271306156531,-14.022252180994258 A 258.17923335163977 258.17923335163977 0 0 1 153.18141895234035,-7.209438090522095 L 152.46003450566838,-4.297462046647464 L 160.09626046249318,-6.011537055599899 L 154.14326488123635,-11.09207281568827 L 153.42188043456437,-8.18009677181364 A 259.17923335163977 259.17923335163977 0 0 0 111.00392948338967,-15.019298786682498"/><text text-anchor="middle" pointer-events="none" font-size="8px" fill="#000000" x="88.64725692371263" y="-12.273135833574372" transform="rotate(180 88.64725692371263 -15.273135833574372)" font-family="sans-serif">DEPENDS</text></g><g class="relationship" transform="translate(489.0200762759113 129.53335311523813) rotate(532.4529496281808)"><path class="outline" fill="#A5ABB6" stroke="none" d="M 24.018736134675446,-6.953439040707552 L 24.277555179777966,-5.987513214418485 A 507.00794050118674 507.00794050118674 0 0 1 130.31624315521316,-22.637505207099082 L 130.2665701204682,-23.63627073995417 A 508.00794050118674 508.00794050118674 0 0 0 24.018736134675446,-6.953439040707552 Z M 174.97120749300424,-23.890134357713634 L 174.93288064859684,-22.890869101138662 A 507.00794050118674 507.00794050118674 0 0 1 281.15382395319205,-7.446232996976203 L 280.41032697188666,-4.53982417528753 L 288.0593607006832,-6.195808177545032 L 282.14515326159926,-11.321444759227768 L 281.4016562802939,-8.415035937539095 A 508.00794050118674 508.00794050118674 0 0 0 174.97120749300424,-23.890134357713634"/><text text-anchor="middle" pointer-events="none" font-size="8px" fill="#000000" x="152.6189342102479" y="-20.75520712379995" transform="rotate(180 152.6189342102479 -23.75520712379995)" font-family="sans-serif">DEPENDS</text></g><g class="relationship" transform="translate(179.4458122840495 170.5482297746259) rotate(209.98564644842253)"><path class="outline" fill="#A5ABB6" stroke="none" d="M 6.953439040707552 24.018736134675446 L 17.306200844808384 62.65576918623819 A 17.916697508022974 17.916697508022974 0 1 1 -17.306200844808384 62.65576918623819 L -8.765172356425198 30.780216918698923 L -4.901469051268926 31.815493099109005 L -6.4704761275630185 24.148145657226706 L -11.662949835292403 30.00375978339136 L -7.79924653013613 31.039035963801442 L -16.340275018519314 62.91458823134071 A 16.916697508022974 16.916697508022974 0 1 0 16.340275018519314 62.91458823134071 L 5.987513214418485 24.277555179777966 Z"/><text text-anchor="middle" pointer-events="none" font-size="8px" fill="#000000" x="0" y="94.20964923467838" transform="rotate(180 0 91.20964923467838)" font-family="sans-serif">DEPENDS</text></g><g class="relationship" transform="translate(147.83503742479655 94.16390986590515) rotate(290.77085277873704)"><path class="outline" fill="#A5ABB6" stroke="none" d="M 24.018736134675446,6.953439040707552 L 24.277555179777966,5.987513214418485 A 375.7515077320956 375.7515077320956 0 0 0 96.53217950539451,17.958544838234218 L 96.46565409807863,18.956329569617424 A 376.7515077320956 376.7515077320956 0 0 1 24.018736134675446,6.953439040707552 Z M 141.1733690828836,19.278454395931817 L 141.12122817017882,18.279814658477733 A 375.7515077320956 375.7515077320956 0 0 0 213.540847534711,7.351179534610711 L 212.80622656286263,4.442514543980032 L 220.45016934149064,6.12184143206965 L 214.52034216384212,11.229399522118284 L 213.78572119199376,8.320734531487604 A 376.7515077320956 376.7515077320956 0 0 1 141.1733690828836,19.278454395931817"/><text text-anchor="middle" pointer-events="none" font-size="8px" fill="#000000" x="118.81833155313167" y="22.281169404384457" font-family="sans-serif">DEPENDS</text></g><g class="relationship" transform="translate(322.0281176762985 287.4238109639685) rotate(258.29775908263355)"><path class="outline" fill="#A5ABB6" stroke="none" d="M 24.018736134675446,-6.953439040707552 L 24.277555179777966,-5.987513214418485 A 737.0464050695873 737.0464050695873 0 0 1 189.67114909977505,-30.665065557286994 L 189.6367305710883,-31.66447306420457 A 738.0464050695873 738.0464050695873 0 0 0 24.018736134675446,-6.953439040707552 Z M 234.33558137422042,-31.849463368743386 L 234.30943616261106,-30.849805213217337 A 737.0464050695873 737.0464050695873 0 0 1 399.90162161632975,-7.542067955620252 L 399.1491761051299,-4.637962972553142 L 406.80327416201965,-6.270379259998489 L 400.90488229792953,-11.414207933043064 L 400.1524367867297,-8.510102949975956 A 738.0464050695873 738.0464050695873 0 0 0 234.33558137422042,-31.849463368743386"/><text text-anchor="middle" pointer-events="none" font-size="8px" fill="#000000" x="211.98682445461557" y="-28.595444208371987" transform="rotate(180 211.98682445461557 -31.595444208371987)" font-family="sans-serif">DEPENDS</text></g><g class="relationship" transform="translate(-143.62805773679537 47.827229641762834) rotate(334.2488964200834)"><path class="outline" fill="#A5ABB6" stroke="none" d="M 24.018736134675446,-6.953439040707552 L 24.277555179777966,-5.987513214418485 A 715.62885743964 715.62885743964 0 0 1 184.1404877772505,-29.92264979033166 L 184.1050567788087,-30.92202191539286 A 716.62885743964 716.62885743964 0 0 0 24.018736134675446,-6.953439040707552 Z M 228.8043782322897,-31.111810033260554 L 228.7774347938254,-30.112173073597887 A 715.62885743964 715.62885743964 0 0 1 388.83785157400513,-7.535393814216134 L 388.08602924180263,-4.63112743855401 L 395.73977683925045,-6.265186101687342 L 389.84028135027506,-11.407748981765632 L 389.08845901807257,-8.503482606103509 A 716.62885743964 716.62885743964 0 0 0 228.8043782322897,-31.111810033260554"/><text text-anchor="middle" pointer-events="none" font-size="8px" fill="#000000" x="206.4553603140254" y="-27.865520286161086" font-family="sans-serif">DEPENDS</text></g><g class="relationship" transform="translate(489.0200762759113 129.53335311523813) rotate(226.07654211247234)"><path class="outline" fill="#A5ABB6" stroke="none" d="M 24.018736134675446,-6.953439040707552 L 24.277555179777966,-5.987513214418485 A 612.596161084306 612.596161084306 0 0 1 157.5451883449925,-26.339222270291543 L 157.5039149549743,-27.33837016088455 A 613.596161084306 613.596161084306 0 0 0 24.018736134675446,-6.953439040707552 Z M 202.20571314094013,-27.555200360619892 L 202.17413438320864,-26.555699093957287 A 612.596161084306 612.596161084306 0 0 1 335.63292763142863,-7.497771198145945 L 334.8846182456701,-4.592597698475794 L 342.5363840282854,-6.235911547987763 L 336.63067347910663,-11.371335864372814 L 335.8823640933481,-8.466162364702662 A 613.596161084306 613.596161084306 0 0 0 202.20571314094013,-27.555200360619892"/><text text-anchor="middle" pointer-events="none" font-size="8px" fill="#000000" x="179.85526406869602" y="-24.35400881047019" transform="rotate(180 179.85526406869602 -27.35400881047019)" font-family="sans-serif">DEPENDS</text></g><g class="relationship" transform="translate(234.60944515060143 -134.62186448726177) rotate(190.16271926627786)"><path class="outline" fill="#A5ABB6" stroke="none" d="M 6.953439040707552 24.018736134675446 L 17.306200844808384 62.65576918623819 A 17.916697508022974 17.916697508022974 0 1 1 -17.306200844808384 62.65576918623819 L -8.765172356425198 30.780216918698923 L -4.901469051268926 31.815493099109005 L -6.4704761275630185 24.148145657226706 L -11.662949835292403 30.00375978339136 L -7.79924653013613 31.039035963801442 L -16.340275018519314 62.91458823134071 A 16.916697508022974 16.916697508022974 0 1 0 16.340275018519314 62.91458823134071 L 5.987513214418485 24.277555179777966 Z"/><text text-anchor="middle" pointer-events="none" font-size="8px" fill="#000000" x="0" y="94.20964923467838" transform="rotate(180 0 91.20964923467838)" font-family="sans-serif">DEPENDS</text></g><g class="relationship" transform="translate(-143.62805773679537 47.827229641762834) rotate(354.1564976878334)"><path class="outline" fill="#A5ABB6" stroke="none" d="M 24.018736134675446,-6.953439040707552 L 24.277555179777966,-5.987513214418485 A 1042.425165899637 1042.425165899637 0 0 1 268.58146179966894,-41.19545799290529 L 268.5570038527169,-42.1951588525784 A 1043.425165899637 1043.425165899637 0 0 0 24.018736134675446,-6.953439040707552 Z M 313.2505794129478,-42.33111212249321 L 313.23220383717023,-41.331280967640055 A 1042.425165899637 1042.425165899637 0 0 1 557.7457852697936,-7.610268820060204 L 556.9869718239379,-4.707821205651211 L 564.6446319443905,-6.323445382131512 L 558.7575365309347,-11.480198972605528 L 557.998723085079,-8.577751358196535 A 1043.425165899637 1043.425165899637 0 0 0 313.2505794129478,-42.33111212249321"/><text text-anchor="middle" pointer-events="none" font-size="8px" fill="#000000" x="290.9045845679373" y="-39.002464265336926" font-family="sans-serif">DEPENDS</text></g><g class="relationship" transform="translate(322.0281176762985 287.4238109639685) rotate(291.8503937217696)"><path class="outline" fill="#A5ABB6" stroke="none" d="M 24.018736134675446,-6.953439040707552 L 24.277555179777966,-5.987513214418485 A 527.2805740593068 527.2805740593068 0 0 1 135.541446753172,-23.351330195603282 L 135.49364229318275,-24.35018690885363 A 528.2805740593068 528.2805740593068 0 0 0 24.018736134675446,-6.953439040707552 Z M 180.19772228047563,-24.595994157148652 L 180.16090488953486,-23.596672147121694 A 527.2805740593068 527.2805740593068 0 0 1 291.6090143407331,-7.457446392278373 L 290.8644702919677,-4.551305624963744 L 298.5141001392615,-6.204533739711594 L 292.60173973908695,-11.332300748697879 L 291.85719569032153,-8.42615998138325 A 528.2805740593068 528.2805740593068 0 0 0 180.19772228047563,-24.595994157148652"/><text text-anchor="middle" pointer-events="none" font-size="8px" fill="#000000" x="157.84583022900546" y="-21.446184821603993" font-family="sans-serif">DEPENDS</text></g><g class="relationship" transform="translate(489.0200762759113 129.53335311523813) rotate(251.68981720252492)"><path class="outline" fill="#A5ABB6" stroke="none" d="M 24.018736134675446,-6.953439040707552 L 24.277555179777966,-5.987513214418485 A 189.28561902804003 189.28561902804003 0 0 1 48.8588067413145,-10.856795064126715 L 48.72985097736223,-11.848445411246871 A 190.28561902804003 190.28561902804003 0 0 0 24.018736134675446,-6.953439040707552 Z M 93.41696588335421,-12.367519847093888 L 93.31107933429172,-11.373141629951334 A 189.28561902804003 189.28561902804003 0 0 1 117.998803984129,-7.076155979840683 L 117.2898669946383,-4.161124531479986 L 124.91870019521907,-5.907808245755829 L 118.94405330344993,-10.962864577654946 L 118.23511631395924,-8.047833129294249 A 190.28561902804003 190.28561902804003 0 0 0 93.41696588335421,-12.367519847093888"/><text text-anchor="middle" pointer-events="none" font-size="8px" fill="#000000" x="71.06392440751549" y="-9.924462095844063" transform="rotate(180 71.06392440751549 -12.924462095844063)" font-family="sans-serif">DEPENDS</text></g><g class="relationship" transform="translate(442.1438881154005 -12.122690771676638) rotate(212.92315744517913)"><path class="outline" fill="#A5ABB6" stroke="none" d="M 6.953439040707552 24.018736134675446 L 17.306200844808384 62.65576918623819 A 17.916697508022974 17.916697508022974 0 1 1 -17.306200844808384 62.65576918623819 L -8.765172356425198 30.780216918698923 L -4.901469051268926 31.815493099109005 L -6.4704761275630185 24.148145657226706 L -11.662949835292403 30.00375978339136 L -7.79924653013613 31.039035963801442 L -16.340275018519314 62.91458823134071 A 16.916697508022974 16.916697508022974 0 1 0 16.340275018519314 62.91458823134071 L 5.987513214418485 24.277555179777966 Z"/><text text-anchor="middle" pointer-events="none" font-size="8px" fill="#000000" x="0" y="94.20964923467838" transform="rotate(180 0 91.20964923467838)" font-family="sans-serif">DEPENDS</text></g><g class="relationship" transform="translate(147.83503742479655 94.16390986590515) rotate(215.30131071342953)"><path class="outline" fill="#A5ABB6" stroke="none" d="M 24.018736134675446,6.953439040707552 L 24.277555179777966,5.987513214418485 A 503.305338061118 503.305338061118 0 0 0 129.3620728479079,22.506939055706766 L 129.31204260300558,23.505686758880586 A 504.305338061118 504.305338061118 0 0 1 24.018736134675446,6.953439040707552 Z M 174.01678166682578,23.76107890811926 L 173.97816573709966,22.76182478129698 A 503.305338061118 503.305338061118 0 0 0 279.2445647252001,7.444105377047912 L 278.5012664142752,4.537645740139779 L 286.1501869298066,6.194152591041113 L 280.2356291397667,11.319384892925424 L 279.4923308288418,8.41292525601729 A 504.305338061118 504.305338061118 0 0 1 174.01678166682578,23.76107890811926"/><text text-anchor="middle" pointer-events="none" font-size="8px" fill="#000000" x="151.66443714128917" y="26.629005630027905" transform="rotate(180 151.66443714128917 23.629005630027905)" font-family="sans-serif">DEPENDS</text></g><g class="relationship" transform="translate(-143.62805773679537 47.827229641762834) rotate(286.00771304388263)"><path class="outline" fill="#A5ABB6" stroke="none" d="M 24.018736134675446,-6.953439040707552 L 24.277555179777966,-5.987513214418485 A 167.96822883700787 167.96822883700787 0 0 1 43.46824098270646,-9.946383841175617 L 43.323673816877786,-10.935878830836657 A 168.96822883700787 168.96822883700787 0 0 0 24.018736134675446,-6.953439040707552 Z M 87.99738707946715,-11.493500252130133 L 87.87756304246392,-10.500705107019002 A 167.96822883700787 167.96822883700787 0 0 1 107.16108444132324,-7.02207309344575 L 106.45719860042475,-4.105817836616776 L 114.08299434740725,-5.865715340820765 L 108.09959889585456,-10.910413435884381 L 107.39571305495606,-7.9941581790554075 A 168.96822883700787 168.96822883700787 0 0 0 87.99738707946715,-11.493500252130133"/><text text-anchor="middle" pointer-events="none" font-size="8px" fill="#000000" x="65.64825955371579" y="-9.197769458251031" font-family="sans-serif">DEPENDS</text></g><g class="relationship" transform="translate(-105.46604164227827 -85.19195084268125) rotate(520.6545118786561)"><path class="outline" fill="#A5ABB6" stroke="none" d="M 6.953439040707552 24.018736134675446 L 17.306200844808384 62.65576918623819 A 17.916697508022974 17.916697508022974 0 1 1 -17.306200844808384 62.65576918623819 L -8.765172356425198 30.780216918698923 L -4.901469051268926 31.815493099109005 L -6.4704761275630185 24.148145657226706 L -11.662949835292403 30.00375978339136 L -7.79924653013613 31.039035963801442 L -16.340275018519314 62.91458823134071 A 16.916697508022974 16.916697508022974 0 1 0 16.340275018519314 62.91458823134071 L 5.987513214418485 24.277555179777966 Z"/><text text-anchor="middle" pointer-events="none" font-size="8px" fill="#000000" x="0" y="94.20964923467838" transform="rotate(180 0 91.20964923467838)" font-family="sans-serif">DEPENDS</text></g><g class="relationship" transform="translate(442.1438881154005 -12.122690771676638) rotate(431.6898172025249)"><path class="outline" fill="#A5ABB6" stroke="none" d="M 24.018736134675446,-6.953439040707552 L 24.277555179777966,-5.987513214418485 A 189.28561902804003 189.28561902804003 0 0 1 48.8588067413145,-10.856795064126715 L 48.72985097736223,-11.848445411246871 A 190.28561902804003 190.28561902804003 0 0 0 24.018736134675446,-6.953439040707552 Z M 93.41696588335421,-12.367519847093888 L 93.31107933429172,-11.373141629951334 A 189.28561902804003 189.28561902804003 0 0 1 117.998803984129,-7.076155979840683 L 117.2898669946383,-4.161124531479986 L 124.91870019521907,-5.907808245755829 L 118.94405330344993,-10.962864577654946 L 118.23511631395924,-8.047833129294249 A 190.28561902804003 190.28561902804003 0 0 0 93.41696588335421,-12.367519847093888"/><text text-anchor="middle" pointer-events="none" font-size="8px" fill="#000000" x="71.06392440751549" y="-9.924462095844063" font-family="sans-serif">DEPENDS</text></g><g class="relationship" transform="translate(234.60944515060143 -134.62186448726177) rotate(406.07654211247234)"><path class="outline" fill="#A5ABB6" stroke="none" d="M 24.018736134675446,-6.953439040707552 L 24.277555179777966,-5.987513214418485 A 612.596161084306 612.596161084306 0 0 1 157.5451883449925,-26.339222270291543 L 157.5039149549743,-27.33837016088455 A 613.596161084306 613.596161084306 0 0 0 24.018736134675446,-6.953439040707552 Z M 202.20571314094013,-27.555200360619892 L 202.17413438320864,-26.555699093957287 A 612.596161084306 612.596161084306 0 0 1 335.63292763142863,-7.497771198145945 L 334.8846182456701,-4.592597698475794 L 342.5363840282854,-6.235911547987763 L 336.63067347910663,-11.371335864372814 L 335.8823640933481,-8.466162364702662 A 613.596161084306 613.596161084306 0 0 0 202.20571314094013,-27.555200360619892"/><text text-anchor="middle" pointer-events="none" font-size="8px" fill="#000000" x="179.85526406869602" y="-24.35400881047019" font-family="sans-serif">DEPENDS</text></g><g class="relationship" transform="translate(322.0281176762985 287.4238109639685) rotate(316.6047074108863)"><path class="outline" fill="#A5ABB6" stroke="none" d="M 24.018736134675446,6.953439040707552 L 24.277555179777966,5.987513214418485 A 346.81646601331516 346.81646601331516 0 0 0 89.10017989196038,16.90709642620186 L 89.02826842208728,17.904507445040508 A 347.81646601331516 347.81646601331516 0 0 1 24.018736134675446,6.953439040707552 Z M 133.73621615766098,18.24688425092029 L 133.679588722381,17.24848887153712 A 346.81646601331516 346.81646601331516 0 0 0 198.66184685231013,7.322961156059175 L 197.92986097442608,4.413631907834029 L 205.57227941114948,6.099882315700549 L 199.63782802282222,11.20206682035937 L 198.90584214493816,8.292737572134223 A 347.81646601331516 347.81646601331516 0 0 1 133.73621615766098,18.24688425092029"/><text text-anchor="middle" pointer-events="none" font-size="8px" fill="#000000" x="111.380564268283" y="21.2948137914492" font-family="sans-serif">DEPENDS</text></g><g class="relationship" transform="translate(-143.62805773679537 47.827229641762834) rotate(367.3589807774253)"><path class="outline" fill="#A5ABB6" stroke="none" d="M 24.018736134675446,6.953439040707552 L 24.277555179777966,5.987513214418485 A 1137.3233077999923 1137.3233077999923 0 0 0 293.1162840046514,44.45446248107078 L 293.0938434167396,45.4542106593708 A 1138.3233077999923 1138.3233077999923 0 0 1 24.018736134675446,6.953439040707552 Z M 337.78620926928744,45.579811988521215 L 337.76938828226145,44.579953471332374 A 1137.3233077999923 1137.3233077999923 0 0 0 606.8200802316321,7.624663408586752 L 606.0599227885081,4.722567500167621 L 613.7183302584641,6.334645359367098 L 607.8336234891309,11.494124619812261 L 607.0734660460068,8.59202871139313 A 1138.3233077999923 1138.3233077999923 0 0 1 337.78620926928744,45.579811988521215"/><text text-anchor="middle" pointer-events="none" font-size="8px" fill="#000000" x="315.4408150389346" y="48.236371884144546" font-family="sans-serif">DEPENDS</text></g><g class="relationship" transform="translate(147.83503742479655 94.16390986590515) rotate(365.91850918256597)"><path class="outline" fill="#A5ABB6" stroke="none" d="M 24.018736134675446,-6.953439040707552 L 24.277555179777966,-5.987513214418485 A 566.6026660365815 566.6026660365815 0 0 1 145.6804677054598,-24.731371279950167 L 145.63591329376413,-25.730378239084303 A 567.6026660365815 567.6026660365815 0 0 0 24.018736134675446,-6.953439040707552 Z M 190.33892242544323,-25.961926939022646 L 190.30471926285927,-24.962512038358568 A 566.6026660365815 566.6026660365815 0 0 1 311.89528797825704,-7.477290153427641 L 311.14889100412114,-4.571624729294857 L 318.7995734635895,-6.219974784465974 L 312.8904839437716,-11.35151071893802 L 312.1440869696357,-8.445845294805236 A 567.6026660365815 567.6026660365815 0 0 0 190.33892242544323,-25.961926939022646"/><text text-anchor="middle" pointer-events="none" font-size="8px" fill="#000000" x="167.9877272389665" y="-22.786423519163804" font-family="sans-serif">DEPENDS</text></g><g class="relationship" transform="translate(94.46108502835239 306.67680608057094) rotate(335.82155535783727)"><path class="outline" fill="#A5ABB6" stroke="none" d="M 24.018736134675446,-6.953439040707552 L 24.277555179777966,-5.987513214418485 A 739.9431371168455 739.9431371168455 0 0 1 190.4192237489642,-30.765423123454184 L 190.38493772570516,-31.764835184922845 A 740.9431371168455 740.9431371168455 0 0 0 24.018736134675446,-6.953439040707552 Z M 235.08372603165463,-31.949195099882672 L 235.0576851741224,-30.94953422051458 A 739.9431371168455 739.9431371168455 0 0 1 401.39809045462766,-7.542944859164647 L 400.6455630652151,-4.63886109174611 L 408.2997071435064,-6.271061578438326 L 402.40146030717784,-11.41505654905603 L 401.64893291776525,-8.510972781637493 A 740.9431371168455 740.9431371168455 0 0 0 235.08372603165463,-31.949195099882672"/><text text-anchor="middle" pointer-events="none" font-size="8px" fill="#000000" x="212.73500354796025" y="-28.69416627701662" font-family="sans-serif">DEPENDS</text></g><g class="relationship" transform="translate(179.4458122840495 170.5482297746259) rotate(352.4529496281808)"><path class="outline" fill="#A5ABB6" stroke="none" d="M 24.018736134675446,-6.953439040707552 L 24.277555179777966,-5.987513214418485 A 507.00794050118674 507.00794050118674 0 0 1 130.31624315521316,-22.637505207099082 L 130.2665701204682,-23.63627073995417 A 508.00794050118674 508.00794050118674 0 0 0 24.018736134675446,-6.953439040707552 Z M 174.97120749300424,-23.890134357713634 L 174.93288064859684,-22.890869101138662 A 507.00794050118674 507.00794050118674 0 0 1 281.15382395319205,-7.446232996976203 L 280.41032697188666,-4.53982417528753 L 288.0593607006832,-6.195808177545032 L 282.14515326159926,-11.321444759227768 L 281.4016562802939,-8.415035937539095 A 508.00794050118674 508.00794050118674 0 0 0 174.97120749300424,-23.890134357713634"/><text text-anchor="middle" pointer-events="none" font-size="8px" fill="#000000" x="152.6189342102479" y="-20.75520712379995" font-family="sans-serif">DEPENDS</text></g><g class="relationship" transform="translate(489.0200762759113 129.53335311523813) rotate(284.14726230670556)"><path class="outline" fill="#A5ABB6" stroke="none" d="M 6.953439040707552 24.018736134675446 L 17.306200844808384 62.65576918623819 A 17.916697508022974 17.916697508022974 0 1 1 -17.306200844808384 62.65576918623819 L -8.765172356425198 30.780216918698923 L -4.901469051268926 31.815493099109005 L -6.4704761275630185 24.148145657226706 L -11.662949835292403 30.00375978339136 L -7.79924653013613 31.039035963801442 L -16.340275018519314 62.91458823134071 A 16.916697508022974 16.916697508022974 0 1 0 16.340275018519314 62.91458823134071 L 5.987513214418485 24.277555179777966 Z"/><text text-anchor="middle" pointer-events="none" font-size="8px" fill="#000000" x="0" y="94.20964923467838" font-family="sans-serif">DEPENDS</text></g><g class="relationship" transform="translate(94.46108502835239 306.67680608057094) rotate(227.39223451494922)"><path class="outline" fill="#A5ABB6" stroke="none" d="M 24.018736134675446,-6.953439040707552 L 24.277555179777966,-5.987513214418485 A 583.4300686397339 583.4300686397339 0 0 1 150.02072115474851,-25.32034510420135 L 149.9774260819845,-26.31940743292489 A 584.4300686397339 584.4300686397339 0 0 0 24.018736134675446,-6.953439040707552 Z M 194.67998580854692,-26.545345772605174 L 194.64679173038374,-25.545896847859694 A 583.4300686397339 583.4300686397339 0 0 1 320.57895482390506,-7.485097395057467 L 319.83182884837834,-4.5796193316928075 L 327.4829246343437,-6.226049796055911 L 321.575122791274,-11.359068146210348 L 320.82799681574727,-8.453590082845688 A 584.4300686397339 584.4300686397339 0 0 0 194.67998580854692,-26.545345772605174"/><text text-anchor="middle" pointer-events="none" font-size="8px" fill="#000000" x="172.32907199568157" y="-23.359952459959686" transform="rotate(180 172.32907199568157 -26.359952459959686)" font-family="sans-serif">DEPENDS</text></g><g class="relationship" transform="translate(179.4458122840495 170.5482297746259) rotate(200.79949622698945)"><path class="outline" fill="#A5ABB6" stroke="none" d="M 24.018736134675446,-6.953439040707552 L 24.277555179777966,-5.987513214418485 A 571.6101682337235 571.6101682337235 0 0 1 146.97196044579303,-24.906730802722336 L 146.9277883962909,-25.905754741395867 A 572.6101682337235 572.6101682337235 0 0 0 24.018736134675446,-6.953439040707552 Z M 191.63066310933777,-26.135605109033122 L 191.59676655790858,-25.13617976224566 A 571.6101682337235 571.6101682337235 0 0 1 314.4792346322311,-7.479653555263691 L 313.73261697506683,-4.574044828333901 L 321.38342460459467,-6.22181380970206 L 315.4747248417835,-11.35379852450341 L 314.7281071846192,-8.44818979757362 A 572.6101682337235 572.6101682337235 0 0 0 191.63066310933777,-26.135605109033122"/><text text-anchor="middle" pointer-events="none" font-size="8px" fill="#000000" x="169.27955268987134" y="-22.957094965800593" transform="rotate(180 169.27955268987134 -25.957094965800593)" font-family="sans-serif">DEPENDS</text></g><g class="relationship" transform="translate(442.1438881154005 -12.122690771676638) rotate(534.1564976878334)"><path class="outline" fill="#A5ABB6" stroke="none" d="M 24.018736134675446,-6.953439040707552 L 24.277555179777966,-5.987513214418485 A 1042.425165899637 1042.425165899637 0 0 1 268.58146179966894,-41.19545799290529 L 268.5570038527169,-42.1951588525784 A 1043.425165899637 1043.425165899637 0 0 0 24.018736134675446,-6.953439040707552 Z M 313.2505794129478,-42.33111212249321 L 313.23220383717023,-41.331280967640055 A 1042.425165899637 1042.425165899637 0 0 1 557.7457852697936,-7.610268820060204 L 556.9869718239379,-4.707821205651211 L 564.6446319443905,-6.323445382131512 L 558.7575365309347,-11.480198972605528 L 557.998723085079,-8.577751358196535 A 1043.425165899637 1043.425165899637 0 0 0 313.2505794129478,-42.33111212249321"/><text text-anchor="middle" pointer-events="none" font-size="8px" fill="#000000" x="290.9045845679373" y="-39.002464265336926" transform="rotate(180 290.9045845679373 -42.002464265336926)" font-family="sans-serif">DEPENDS</text></g><g class="relationship" transform="translate(-105.46604164227827 -85.19195084268125) rotate(466.00771304388263)"><path class="outline" fill="#A5ABB6" stroke="none" d="M 24.018736134675446,-6.953439040707552 L 24.277555179777966,-5.987513214418485 A 167.96822883700787 167.96822883700787 0 0 1 43.46824098270646,-9.946383841175617 L 43.323673816877786,-10.935878830836657 A 168.96822883700787 168.96822883700787 0 0 0 24.018736134675446,-6.953439040707552 Z M 87.99738707946715,-11.493500252130133 L 87.87756304246392,-10.500705107019002 A 167.96822883700787 167.96822883700787 0 0 1 107.16108444132324,-7.02207309344575 L 106.45719860042475,-4.105817836616776 L 114.08299434740725,-5.865715340820765 L 108.09959889585456,-10.910413435884381 L 107.39571305495606,-7.9941581790554075 A 168.96822883700787 168.96822883700787 0 0 0 87.99738707946715,-11.493500252130133"/><text text-anchor="middle" pointer-events="none" font-size="8px" fill="#000000" x="65.64825955371579" y="-9.197769458251031" transform="rotate(180 65.64825955371579 -12.197769458251031)" font-family="sans-serif">DEPENDS</text></g><g class="relationship" transform="translate(234.60944515060143 -134.62186448726177) rotate(514.2488964200834)"><path class="outline" fill="#A5ABB6" stroke="none" d="M 24.018736134675446,-6.953439040707552 L 24.277555179777966,-5.987513214418485 A 715.62885743964 715.62885743964 0 0 1 184.1404877772505,-29.92264979033166 L 184.1050567788087,-30.92202191539286 A 716.62885743964 716.62885743964 0 0 0 24.018736134675446,-6.953439040707552 Z M 228.8043782322897,-31.111810033260554 L 228.7774347938254,-30.112173073597887 A 715.62885743964 715.62885743964 0 0 1 388.83785157400513,-7.535393814216134 L 388.08602924180263,-4.63112743855401 L 395.73977683925045,-6.265186101687342 L 389.84028135027506,-11.407748981765632 L 389.08845901807257,-8.503482606103509 A 716.62885743964 716.62885743964 0 0 0 228.8043782322897,-31.111810033260554"/><text text-anchor="middle" pointer-events="none" font-size="8px" fill="#000000" x="206.4553603140254" y="-27.865520286161086" transform="rotate(180 206.4553603140254 -30.865520286161086)" font-family="sans-serif">DEPENDS</text></g><g class="relationship" transform="translate(322.0281176762985 287.4238109639685) rotate(207.22742351136816)"><path class="outline" fill="#A5ABB6" stroke="none" d="M 24.018736134675446,-6.953439040707552 L 24.277555179777966,-5.987513214418485 A 916.4015792791898 916.4015792791898 0 0 1 236.00733366159056,-36.85961040995858 L 235.97955937161424,-37.85922462995359 A 917.4015792791898 917.4015792791898 0 0 0 24.018736134675446,-6.953439040707552 Z M 280.6750206419688,-38.0118824581682 L 280.65407530655983,-37.01210183576916 A 916.4015792791898 916.4015792791898 0 0 1 492.58979938731136,-7.5870387164505155 L 491.83315491695856,-4.684024912576246 L 499.4896056747435,-6.305370586273073 L 493.59865868111507,-11.457723788282877 L 492.8420142107623,-8.554709984408605 A 917.4015792791898 917.4015792791898 0 0 0 280.6750206419688,-38.0118824581682"/><text text-anchor="middle" pointer-events="none" font-size="8px" fill="#000000" x="258.3280679297936" y="-34.70779170690821" transform="rotate(180 258.3280679297936 -37.70779170690821)" font-family="sans-serif">DEPENDS</text></g><g class="relationship" transform="translate(2.9826644923545453 75.44163061230795) rotate(190.66679787000658)"><path class="outline" fill="#A5ABB6" stroke="none" d="M 24.018736134675446,6.953439040707552 L 24.277555179777966,5.987513214418485 A 189.24243566400094 189.24243566400094 0 0 0 48.8478649211978,10.85499048870679 L 48.718880971776684,11.846637170137086 A 190.24243566400094 190.24243566400094 0 0 1 24.018736134675446,6.953439040707552 Z M 93.40597473920026,12.365784452628077 L 93.30006317957549,11.371408899057968 A 189.24243566400094 189.24243566400094 0 0 0 117.9768210937991,7.0760538907003445 L 117.26789363893393,4.161020123530849 L 124.89672112633879,5.9077287905431755 L 118.922057700286,10.96276558025967 L 118.21313024542083,8.047731813090177 A 190.24243566400094 190.24243566400094 0 0 1 93.40597473920026,12.365784452628077"/><text text-anchor="middle" pointer-events="none" font-size="8px" fill="#000000" x="71.05293901557458" y="15.922989966888565" transform="rotate(180 71.05293901557458 12.922989966888565)" font-family="sans-serif">DEPENDS</text></g><g class="relationship" transform="translate(489.0200762759113 129.53335311523813) rotate(187.3589807774253)"><path class="outline" fill="#A5ABB6" stroke="none" d="M 24.018736134675446,6.953439040707552 L 24.277555179777966,5.987513214418485 A 1137.3233077999923 1137.3233077999923 0 0 0 293.1162840046514,44.45446248107078 L 293.0938434167396,45.4542106593708 A 1138.3233077999923 1138.3233077999923 0 0 1 24.018736134675446,6.953439040707552 Z M 337.78620926928744,45.579811988521215 L 337.76938828226145,44.579953471332374 A 1137.3233077999923 1137.3233077999923 0 0 0 606.8200802316321,7.624663408586752 L 606.0599227885081,4.722567500167621 L 613.7183302584641,6.334645359367098 L 607.8336234891309,11.494124619812261 L 607.0734660460068,8.59202871139313 A 1138.3233077999923 1138.3233077999923 0 0 1 337.78620926928744,45.579811988521215"/><text text-anchor="middle" pointer-events="none" font-size="8px" fill="#000000" x="315.4408150389346" y="48.236371884144546" transform="rotate(180 315.4408150389346 45.236371884144546)" font-family="sans-serif">DEPENDS</text></g><g class="relationship" transform="translate(147.83503742479655 94.16390986590515) rotate(189.0332614235109)"><path class="outline" fill="#A5ABB6" stroke="none" d="M 24.018736134675446,-6.953439040707552 L 24.277555179777966,-5.987513214418485 A 473.7215475111283 473.7215475111283 0 0 1 121.74023793728173,-21.46134291500374 L 121.68715722785248,-22.459933140414762 A 474.7215475111283 474.7215475111283 0 0 0 24.018736134675446,-6.953439040707552 Z M 166.39270091818025,-22.72822919264695 L 166.35160948833183,-21.72907380213303 A 473.7215475111283 473.7215475111283 0 0 1 263.99299463385535,-7.426142537666019 L 263.25137364470237,-4.519254457872135 L 270.8993369848999,-6.1801749096080805 L 264.98182261939263,-11.30199331072453 L 264.24020163023965,-8.395105230930646 A 474.7215475111283 474.7215475111283 0 0 0 166.39270091818025,-22.72822919264695"/><text text-anchor="middle" pointer-events="none" font-size="8px" fill="#000000" x="144.03976966014204" y="-19.620643760943324" transform="rotate(180 144.03976966014204 -22.620643760943324)" font-family="sans-serif">DEPENDS</text></g><g class="relationship" transform="translate(-143.62805773679537 47.827229641762834) rotate(436.6999737794159)"><path class="outline" fill="#A5ABB6" stroke="none" d="M 6.953439040707552 24.018736134675446 L 17.306200844808384 62.65576918623819 A 17.916697508022974 17.916697508022974 0 1 1 -17.306200844808384 62.65576918623819 L -8.765172356425198 30.780216918698923 L -4.901469051268926 31.815493099109005 L -6.4704761275630185 24.148145657226706 L -11.662949835292403 30.00375978339136 L -7.79924653013613 31.039035963801442 L -16.340275018519314 62.91458823134071 A 16.916697508022974 16.916697508022974 0 1 0 16.340275018519314 62.91458823134071 L 5.987513214418485 24.277555179777966 Z"/><text text-anchor="middle" pointer-events="none" font-size="8px" fill="#000000" x="0" y="94.20964923467838" font-family="sans-serif">DEPENDS</text></g><g class="relationship" transform="translate(147.83503742479655 94.16390986590515) rotate(187.364693219677)"><path class="outline" fill="#A5ABB6" stroke="none" d="M 24.018736134675446,6.953439040707552 L 24.277555179777966,5.987513214418485 A 183.0823169332538 183.0823169332538 0 0 0 47.28786373423797,10.596047810422846 L 47.154727545567994,11.587145563051934 A 184.0823169332538 184.0823169332538 0 0 1 24.018736134675446,6.953439040707552 Z M 91.83858696074878,12.1168922246585 L 91.72898468241335,11.12291670152743 A 183.0823169332538 183.0823169332538 0 0 0 114.84208290784989,7.06119522962109 L 114.13454318461176,4.145824320107156 L 121.76253831725542,5.896164360317773 L 115.78546920550072,10.948356442306336 L 115.07792948226259,8.032985532792402 A 184.0823169332538 184.0823169332538 0 0 1 91.83858696074878,12.1168922246585"/><text text-anchor="middle" pointer-events="none" font-size="8px" fill="#000000" x="69.48645004262599" y="15.7129918711411" transform="rotate(180 69.48645004262599 12.7129918711411)" font-family="sans-serif">DEPENDS</text></g><g class="relationship" transform="translate(-143.62805773679537 47.827229641762834) rotate(370.6667978700066)"><path class="outline" fill="#A5ABB6" stroke="none" d="M 24.018736134675446,6.953439040707552 L 24.277555179777966,5.987513214418485 A 189.24243566400094 189.24243566400094 0 0 0 48.8478649211978,10.85499048870679 L 48.718880971776684,11.846637170137086 A 190.24243566400094 190.24243566400094 0 0 1 24.018736134675446,6.953439040707552 Z M 93.40597473920026,12.365784452628077 L 93.30006317957549,11.371408899057968 A 189.24243566400094 189.24243566400094 0 0 0 117.9768210937991,7.0760538907003445 L 117.26789363893393,4.161020123530849 L 124.89672112633879,5.9077287905431755 L 118.922057700286,10.96276558025967 L 118.21313024542083,8.047731813090177 A 190.24243566400094 190.24243566400094 0 0 1 93.40597473920026,12.365784452628077"/><text text-anchor="middle" pointer-events="none" font-size="8px" fill="#000000" x="71.05293901557458" y="15.922989966888565" font-family="sans-serif">DEPENDS</text></g><g class="relationship" transform="translate(2.9826644923545453 75.44163061230795) rotate(369.0157455448418)"><path class="outline" fill="#A5ABB6" stroke="none" d="M 6.953439040707552 24.018736134675446 L 17.306200844808384 62.65576918623819 A 17.916697508022974 17.916697508022974 0 1 1 -17.306200844808384 62.65576918623819 L -8.765172356425198 30.780216918698923 L -4.901469051268926 31.815493099109005 L -6.4704761275630185 24.148145657226706 L -11.662949835292403 30.00375978339136 L -7.79924653013613 31.039035963801442 L -16.340275018519314 62.91458823134071 A 16.916697508022974 16.916697508022974 0 1 0 16.340275018519314 62.91458823134071 L 5.987513214418485 24.277555179777966 Z"/><text text-anchor="middle" pointer-events="none" font-size="8px" fill="#000000" x="0" y="94.20964923467838" font-family="sans-serif">DEPENDS</text></g><g class="relationship" transform="translate(234.60944515060143 -134.62186448726177) rotate(438.29775908263355)"><path class="outline" fill="#A5ABB6" stroke="none" d="M 24.018736134675446,-6.953439040707552 L 24.277555179777966,-5.987513214418485 A 737.0464050695873 737.0464050695873 0 0 1 189.67114909977505,-30.665065557286994 L 189.6367305710883,-31.66447306420457 A 738.0464050695873 738.0464050695873 0 0 0 24.018736134675446,-6.953439040707552 Z M 234.33558137422042,-31.849463368743386 L 234.30943616261106,-30.849805213217337 A 737.0464050695873 737.0464050695873 0 0 1 399.90162161632975,-7.542067955620252 L 399.1491761051299,-4.637962972553142 L 406.80327416201965,-6.270379259998489 L 400.90488229792953,-11.414207933043064 L 400.1524367867297,-8.510102949975956 A 738.0464050695873 738.0464050695873 0 0 0 234.33558137422042,-31.849463368743386"/><text text-anchor="middle" pointer-events="none" font-size="8px" fill="#000000" x="211.98682445461557" y="-28.595444208371987" font-family="sans-serif">DEPENDS</text></g><g class="relationship" transform="translate(442.1438881154005 -12.122690771676638) rotate(471.8503937217696)"><path class="outline" fill="#A5ABB6" stroke="none" d="M 24.018736134675446,-6.953439040707552 L 24.277555179777966,-5.987513214418485 A 527.2805740593068 527.2805740593068 0 0 1 135.541446753172,-23.351330195603282 L 135.49364229318275,-24.35018690885363 A 528.2805740593068 528.2805740593068 0 0 0 24.018736134675446,-6.953439040707552 Z M 180.19772228047563,-24.595994157148652 L 180.16090488953486,-23.596672147121694 A 527.2805740593068 527.2805740593068 0 0 1 291.6090143407331,-7.457446392278373 L 290.8644702919677,-4.551305624963744 L 298.5141001392615,-6.204533739711594 L 292.60173973908695,-11.332300748697879 L 291.85719569032153,-8.42615998138325 A 528.2805740593068 528.2805740593068 0 0 0 180.19772228047563,-24.595994157148652"/><text text-anchor="middle" pointer-events="none" font-size="8px" fill="#000000" x="157.84583022900546" y="-21.446184821603993" transform="rotate(180 157.84583022900546 -24.446184821603993)" font-family="sans-serif">DEPENDS</text></g><g class="relationship" transform="translate(179.4458122840495 170.5482297746259) rotate(399.3416812427022)"><path class="outline" fill="#A5ABB6" stroke="none" d="M 24.018736134675446,-6.953439040707552 L 24.277555179777966,-5.987513214418485 A 258.17923335163977 258.17923335163977 0 0 1 66.3950999232034,-13.600117463740787 L 66.29941384660754,-14.595529024225016 A 259.17923335163977 259.17923335163977 0 0 0 24.018736134675446,-6.953439040707552 Z M 111.00392948338967,-15.019298786682498 L 110.9271306156531,-14.022252180994258 A 258.17923335163977 258.17923335163977 0 0 1 153.18141895234035,-7.209438090522095 L 152.46003450566838,-4.297462046647464 L 160.09626046249318,-6.011537055599899 L 154.14326488123635,-11.09207281568827 L 153.42188043456437,-8.18009677181364 A 259.17923335163977 259.17923335163977 0 0 0 111.00392948338967,-15.019298786682498"/><text text-anchor="middle" pointer-events="none" font-size="8px" fill="#000000" x="88.64725692371263" y="-12.273135833574372" font-family="sans-serif">DEPENDS</text></g><g class="relationship" transform="translate(489.0200762759113 129.53335311523813) rotate(496.6047074108863)"><path class="outline" fill="#A5ABB6" stroke="none" d="M 24.018736134675446,6.953439040707552 L 24.277555179777966,5.987513214418485 A 346.81646601331516 346.81646601331516 0 0 0 89.10017989196038,16.90709642620186 L 89.02826842208728,17.904507445040508 A 347.81646601331516 347.81646601331516 0 0 1 24.018736134675446,6.953439040707552 Z M 133.73621615766098,18.24688425092029 L 133.679588722381,17.24848887153712 A 346.81646601331516 346.81646601331516 0 0 0 198.66184685231013,7.322961156059175 L 197.92986097442608,4.413631907834029 L 205.57227941114948,6.099882315700549 L 199.63782802282222,11.20206682035937 L 198.90584214493816,8.292737572134223 A 347.81646601331516 347.81646601331516 0 0 1 133.73621615766098,18.24688425092029"/><text text-anchor="middle" pointer-events="none" font-size="8px" fill="#000000" x="111.380564268283" y="21.2948137914492" transform="rotate(180 111.380564268283 18.2948137914492)" font-family="sans-serif">DEPENDS</text></g><g class="relationship" transform="translate(147.83503742479655 94.16390986590515) rotate(407.97036500777347)"><path class="outline" fill="#A5ABB6" stroke="none" d="M 24.018736134675446,-6.953439040707552 L 24.277555179777966,-5.987513214418485 A 405.8615085056114 405.8615085056114 0 0 1 104.27320559557413,-19.04318061442001 L 104.21148740566316,-20.04127422978587 A 406.8615085056114 406.8615085056114 0 0 0 24.018736134675446,-6.953439040707552 Z M 148.91868530143321,-20.344704445348953 L 148.87052040591794,-19.345865047427537 A 405.8615085056114 405.8615085056114 0 0 1 229.03601220819507,-7.377220144817792 L 228.29895954222332,-4.46917039153228 L 235.94430374352322,-6.142105549764617 L 230.01874909615742,-11.25461981586514 L 229.28169643018566,-8.34657006257963 A 406.8615085056114 406.8615085056114 0 0 0 148.91868530143321,-20.344704445348953"/><text text-anchor="middle" pointer-events="none" font-size="8px" fill="#000000" x="126.56430882579032" y="-17.307549739127694" font-family="sans-serif">DEPENDS</text></g><g class="relationship" transform="translate(94.46108502835239 306.67680608057094) rotate(355.1640857354364)"><path class="outline" fill="#A5ABB6" stroke="none" d="M 24.018736134675446,-6.953439040707552 L 24.277555179777966,-5.987513214418485 A 344.0199281373059 344.0199281373059 0 0 1 88.38230071062941,-16.804918608957166 L 88.30982187517098,-17.80228855958262 A 345.0199281373059 345.0199281373059 0 0 0 24.018736134675446,-6.953439040707552 Z M 133.01777267362354,-18.146757250558778 L 132.96067073083583,-17.1483888976299 A 344.0199281373059 344.0199281373059 0 0 1 197.22448895032971,-7.320045858396003 L 196.4927753115751,-4.410648128476547 L 204.1350359266009,-6.097613656288476 L 198.20010713533588,-11.199242831621943 L 197.46839349658126,-8.289845101702488 A 345.0199281373059 345.0199281373059 0 0 0 133.01777267362354,-18.146757250558778"/><text text-anchor="middle" pointer-events="none" font-size="8px" fill="#000000" x="110.6620639931108" y="-15.199482259881279" font-family="sans-serif">DEPENDS</text></g><g class="relationship" transform="translate(-143.62805773679537 47.827229641762834) rotate(387.22742351136816)"><path class="outline" fill="#A5ABB6" stroke="none" d="M 24.018736134675446,-6.953439040707552 L 24.277555179777966,-5.987513214418485 A 916.4015792791898 916.4015792791898 0 0 1 236.00733366159056,-36.85961040995858 L 235.97955937161424,-37.85922462995359 A 917.4015792791898 917.4015792791898 0 0 0 24.018736134675446,-6.953439040707552 Z M 280.6750206419688,-38.0118824581682 L 280.65407530655983,-37.01210183576916 A 916.4015792791898 916.4015792791898 0 0 1 492.58979938731136,-7.5870387164505155 L 491.83315491695856,-4.684024912576246 L 499.4896056747435,-6.305370586273073 L 493.59865868111507,-11.457723788282877 L 492.8420142107623,-8.554709984408605 A 917.4015792791898 917.4015792791898 0 0 0 280.6750206419688,-38.0118824581682"/><text text-anchor="middle" pointer-events="none" font-size="8px" fill="#000000" x="258.3280679297936" y="-34.70779170690821" font-family="sans-serif">DEPENDS</text></g><g class="relationship" transform="translate(322.0281176762985 287.4238109639685) rotate(335.8843965731613)"><path class="outline" fill="#A5ABB6" stroke="none" d="M 6.953439040707552 24.018736134675446 L 17.306200844808384 62.65576918623819 A 17.916697508022974 17.916697508022974 0 1 1 -17.306200844808384 62.65576918623819 L -8.765172356425198 30.780216918698923 L -4.901469051268926 31.815493099109005 L -6.4704761275630185 24.148145657226706 L -11.662949835292403 30.00375978339136 L -7.79924653013613 31.039035963801442 L -16.340275018519314 62.91458823134071 A 16.916697508022974 16.916697508022974 0 1 0 16.340275018519314 62.91458823134071 L 5.987513214418485 24.277555179777966 Z"/><text text-anchor="middle" pointer-events="none" font-size="8px" fill="#000000" x="0" y="94.20964923467838" font-family="sans-serif">DEPENDS</text></g></g><g class="layer nodes"><g class="node" transform="translate(147.83503742479655,94.16390986590515)"><circle class="outline" cx="0" cy="0" r="25" fill="#FF756E" stroke="#E06760" stroke-width="2px"/><text text-anchor="middle" pointer-events="none" font-family="sans-serif" dy="1.5625" font-size="25" fill="#FFFFFF"/><text class="caption" text-anchor="middle" pointer-events="none" y="5" font-size="10px" fill="#FFFFFF" font-family="sans-serif"> datetime</text></g><g class="node" transform="translate(94.46108502835239,306.67680608057094)"><circle class="outline" cx="0" cy="0" r="25" fill="#FF756E" stroke="#E06760" stroke-width="2px"/><text text-anchor="middle" pointer-events="none" font-family="sans-serif" dy="1.5625" font-size="25" fill="#FFFFFF"/><text class="caption" text-anchor="middle" pointer-events="none" y="5" font-size="10px" fill="#FFFFFF" font-family="sans-serif"> random</text></g><g class="node" transform="translate(179.4458122840495,170.5482297746259)"><circle class="outline" cx="0" cy="0" r="25" fill="#FF756E" stroke="#E06760" stroke-width="2px"/><text text-anchor="middle" pointer-events="none" font-family="sans-serif" dy="1.5625" font-size="25" fill="#FFFFFF"/><text class="caption" text-anchor="middle" pointer-events="none" y="5" font-size="10px" fill="#FFFFFF" font-family="sans-serif"> hashlib</text></g><g class="node" transform="translate(234.60944515060143,-134.62186448726177)"><circle class="outline" cx="0" cy="0" r="25" fill="#FF756E" stroke="#E06760" stroke-width="2px"/><text text-anchor="middle" pointer-events="none" font-family="sans-serif" dy="1.5625" font-size="25" fill="#FFFFFF"/><text class="caption" text-anchor="middle" pointer-events="none" y="5" font-size="10px" fill="#FFFFFF" font-family="sans-serif"> uuid</text></g><g class="node" transform="translate(442.1438881154005,-12.122690771676638)"><circle class="outline" cx="0" cy="0" r="25" fill="#FF756E" stroke="#E06760" stroke-width="2px"/><text text-anchor="middle" pointer-events="none" font-family="sans-serif" dy="1.5625" font-size="25" fill="#FFFFFF"/><text class="caption" text-anchor="middle" pointer-events="none" y="5" font-size="10px" fill="#FFFFFF" font-family="sans-serif"> warnings</text></g><g class="node" transform="translate(-105.46604164227827,-85.19195084268125)"><circle class="outline" cx="0" cy="0" r="25" fill="#FF756E" stroke="#E06760" stroke-width="2px"/><text text-anchor="middle" pointer-events="none" font-family="sans-serif" dy="1.5625" font-size="25" fill="#FFFFFF"/><text class="caption" text-anchor="middle" pointer-events="none" y="5" font-size="10px" fill="#FFFFFF" font-family="sans-serif"> decimal</text></g><g class="node" transform="translate(489.0200762759113,129.53335311523813)"><circle class="outline" cx="0" cy="0" r="25" fill="#FF756E" stroke="#E06760" stroke-width="2px"/><text text-anchor="middle" pointer-events="none" font-family="sans-serif" dy="1.5625" font-size="25" fill="#FFFFFF"/><text class="caption" text-anchor="middle" pointer-events="none" y="5" font-size="10px" fill="#FFFFFF" font-family="sans-serif"> os</text></g><g class="node" transform="translate(-143.62805773679537,47.827229641762834)"><circle class="outline" cx="0" cy="0" r="25" fill="#FF756E" stroke="#E06760" stroke-width="2px"/><text text-anchor="middle" pointer-events="none" font-family="sans-serif" dy="1.5625" font-size="25" fill="#FFFFFF"/><text class="caption" text-anchor="middle" pointer-events="none" y="5" font-size="10px" fill="#FFFFFF" font-family="sans-serif"> django</text></g><g class="node" transform="translate(2.9826644923545453,75.44163061230795)"><circle class="outline" cx="0" cy="0" r="25" fill="#FF756E" stroke="#E06760" stroke-width="2px"/><text text-anchor="middle" pointer-events="none" font-family="sans-serif" dy="1.5625" font-size="25" fill="#FFFFFF"/><text class="caption" text-anchor="middle" pointer-events="none" y="5" font-size="10px" fill="#FFFFFF" font-family="sans-serif"> south</text></g><g class="node" transform="translate(322.0281176762985,287.4238109639685)"><circle class="outline" cx="0" cy="0" r="25" fill="#FF756E" stroke="#E06760" stroke-width="2px"/><text text-anchor="middle" pointer-events="none" font-family="sans-serif" dy="1.5625" font-size="25" fill="#FFFFFF"/><text class="caption" text-anchor="middle" pointer-events="none" y="5" font-size="10px" fill="#FFFFFF" font-family="sans-serif"> sys</text></g></g></svg>